<svg width="699" height="508" viewBox="0 0 699 508" fill="none" xmlns="http://www.w3.org/2000/svg">
<g clip-path="url(#clip0_26_112)">
<path d="M407.166 89.5545C420.267 89.5545 430.887 78.9425 430.887 65.8519C430.887 52.7613 420.267 42.1493 407.166 42.1493C394.066 42.1493 383.446 52.7613 383.446 65.8519C383.446 78.9425 394.066 89.5545 407.166 89.5545Z" fill="#FF4A1C"/>
<path d="M591.174 441.328C626.432 414.493 643.273 369.4 632.73 326.385C632.468 325.316 632.191 324.249 631.9 323.186C624.911 297.652 607.619 273.384 582.417 265.226C561.256 258.375 538.158 263.643 516.082 260.919C472.745 255.571 439.147 220.533 415.507 183.848C391.866 147.163 373.698 106.1 342.285 75.7924C290.505 25.8361 206.04 15.0805 141.841 47.5983C77.6421 80.1162 36.748 152.26 38.492 224.16C40.2361 296.06 82.9525 364.802 144.987 401.274C167.776 414.672 194.134 424.163 220.365 420.842C243.126 417.96 263.807 405.74 286.46 402.112C322.076 396.408 357.466 412.499 388.271 431.25C419.077 450.001 448.833 472.226 483.839 480.919C517.83 489.36 559.941 465.099 591.174 441.328Z" fill="#FF4A1C"/>
<path d="M540.517 49.1082C539.744 48.5933 538.963 48.1051 538.19 47.6079C515.848 33.3298 491.901 21.7304 466.843 13.0493L461.033 93.1387H424.201V1.35815C421.882 0.878788 419.546 0.426056 417.209 -4.57764e-05V93.1387H373.438C349.342 93.1387 326.233 83.5737 309.194 66.548C292.155 49.5223 282.583 26.4305 282.583 2.35249V2.35241C280.238 2.85841 277.91 3.39991 275.583 3.97693V93.1387H239.932L234.397 16.7688C208.647 26.6369 184.201 39.6139 161.603 55.411C161.212 55.6773 160.821 55.9524 160.439 56.2188C158.476 57.5947 156.539 58.9973 154.611 60.4176V365.959H259.681L257.824 340.26L247.607 199.158H453.349L443.132 340.26L441.276 365.959H545.181V52.1974C543.635 51.15 542.081 50.1202 540.517 49.1082ZM275.583 175.856H245.919L240.438 100.134H275.583V175.856ZM417.209 175.856H367.388V174.355C367.389 173.634 367.246 172.92 366.97 172.254C366.693 171.588 366.288 170.983 365.777 170.473C365.267 169.963 364.66 169.56 363.993 169.284C363.326 169.009 362.611 168.868 361.889 168.869H340.231C339.509 168.869 338.795 169.011 338.129 169.286C337.463 169.562 336.858 169.966 336.348 170.476C335.838 170.985 335.433 171.59 335.158 172.256C334.882 172.921 334.74 173.635 334.74 174.355V175.856H282.583V100.134H417.209V175.856ZM424.201 175.856V100.134H460.527L455.046 175.856H424.201Z" fill="#D7CEBB"/>
<path d="M0 385.525C7.71764 394.663 16.0651 403.25 24.9814 411.224L674.019 412.112C682.935 404.138 691.282 395.55 699 386.413L0 385.525Z" fill="#4B728A"/>
<path d="M440.133 303.235V379.315C440.134 380.285 440.52 381.214 441.206 381.9C441.892 382.585 442.822 382.971 443.792 382.972H556.621C557.592 382.971 558.522 382.585 559.208 381.9C559.894 381.214 560.28 380.285 560.281 379.315V303.235C560.278 302.266 559.892 301.338 559.206 300.653C558.52 299.968 557.591 299.583 556.621 299.582H443.792C442.823 299.583 441.893 299.968 441.208 300.653C440.522 301.338 440.135 302.266 440.133 303.235V303.235Z" fill="#4B728A"/>
<path d="M442.78 304.181V378.377C442.781 378.895 442.987 379.391 443.354 379.757C443.72 380.124 444.217 380.33 444.736 380.331H555.682C556.201 380.33 556.698 380.124 557.064 379.757C557.431 379.391 557.637 378.895 557.638 378.377V304.181C557.638 303.663 557.432 303.165 557.065 302.798C556.699 302.431 556.201 302.224 555.682 302.223H444.736C444.217 302.224 443.719 302.431 443.353 302.798C442.986 303.165 442.78 303.663 442.78 304.181V304.181Z" fill="#003049"/>
<path d="M437.773 394.153C437.98 394.412 438.243 394.621 438.542 394.764C438.841 394.907 439.168 394.98 439.5 394.978H560.313C560.644 394.978 560.97 394.904 561.268 394.762C561.566 394.619 561.829 394.413 562.037 394.156C562.245 393.9 562.394 393.6 562.471 393.279C562.549 392.958 562.554 392.624 562.486 392.301L560.611 383.4C560.533 383.037 560.366 382.699 560.124 382.417C559.882 382.135 559.574 381.918 559.227 381.786C558.975 381.688 558.708 381.637 558.438 381.638H441.368C441.098 381.637 440.83 381.688 440.579 381.786C440.232 381.918 439.923 382.135 439.682 382.417C439.44 382.699 439.273 383.037 439.195 383.4L437.319 392.301C437.253 392.624 437.259 392.958 437.337 393.278C437.416 393.599 437.565 393.897 437.773 394.153V394.153Z" fill="#2F2E41"/>
<path d="M554.293 385.471H557.146C557.386 385.471 557.58 385.277 557.58 385.038V383.674C557.58 383.435 557.386 383.241 557.146 383.241H554.293C554.053 383.241 553.859 383.435 553.859 383.674V385.038C553.859 385.277 554.053 385.471 554.293 385.471Z" fill="#4B728A"/>
<path d="M546.851 385.471H549.704C549.944 385.471 550.138 385.277 550.138 385.038V383.674C550.138 383.435 549.944 383.241 549.704 383.241H546.851C546.611 383.241 546.417 383.435 546.417 383.674V385.038C546.417 385.277 546.611 385.471 546.851 385.471Z" fill="#4B728A"/>
<path d="M539.409 385.471H542.262C542.502 385.471 542.696 385.277 542.696 385.038V383.674C542.696 383.435 542.502 383.241 542.262 383.241H539.409C539.169 383.241 538.975 383.435 538.975 383.674V385.038C538.975 385.277 539.169 385.471 539.409 385.471Z" fill="#4B728A"/>
<path d="M531.967 385.471H534.82C535.06 385.471 535.254 385.277 535.254 385.038V383.674C535.254 383.435 535.06 383.241 534.82 383.241H531.967C531.727 383.241 531.533 383.435 531.533 383.674V385.038C531.533 385.277 531.727 385.471 531.967 385.471Z" fill="#4B728A"/>
<path d="M524.525 385.471H527.378C527.618 385.471 527.812 385.277 527.812 385.038V383.674C527.812 383.435 527.618 383.241 527.378 383.241H524.525C524.285 383.241 524.091 383.435 524.091 383.674V385.038C524.091 385.277 524.285 385.471 524.525 385.471Z" fill="#4B728A"/>
<path d="M517.083 385.471H519.936C520.176 385.471 520.37 385.277 520.37 385.038V383.674C520.37 383.435 520.176 383.241 519.936 383.241H517.083C516.843 383.241 516.649 383.435 516.649 383.674V385.038C516.649 385.277 516.843 385.471 517.083 385.471Z" fill="#4B728A"/>
<path d="M509.641 385.471H512.494C512.734 385.471 512.928 385.277 512.928 385.038V383.674C512.928 383.435 512.734 383.241 512.494 383.241H509.641C509.401 383.241 509.207 383.435 509.207 383.674V385.038C509.207 385.277 509.401 385.471 509.641 385.471Z" fill="#4B728A"/>
<path d="M502.199 385.471H505.052C505.292 385.471 505.486 385.277 505.486 385.038V383.674C505.486 383.435 505.292 383.241 505.052 383.241H502.199C501.959 383.241 501.765 383.435 501.765 383.674V385.038C501.765 385.277 501.959 385.471 502.199 385.471Z" fill="#4B728A"/>
<path d="M494.757 385.471H497.61C497.85 385.471 498.044 385.277 498.044 385.038V383.674C498.044 383.435 497.85 383.241 497.61 383.241H494.757C494.517 383.241 494.323 383.435 494.323 383.674V385.038C494.323 385.277 494.517 385.471 494.757 385.471Z" fill="#4B728A"/>
<path d="M487.315 385.471H490.168C490.408 385.471 490.602 385.277 490.602 385.038V383.674C490.602 383.435 490.408 383.241 490.168 383.241H487.315C487.075 383.241 486.881 383.435 486.881 383.674V385.038C486.881 385.277 487.075 385.471 487.315 385.471Z" fill="#4B728A"/>
<path d="M479.873 385.471H482.726C482.966 385.471 483.16 385.277 483.16 385.038V383.674C483.16 383.435 482.966 383.241 482.726 383.241H479.873C479.633 383.241 479.439 383.435 479.439 383.674V385.038C479.439 385.277 479.633 385.471 479.873 385.471Z" fill="#4B728A"/>
<path d="M472.431 385.471H475.284C475.524 385.471 475.718 385.277 475.718 385.038V383.674C475.718 383.435 475.524 383.241 475.284 383.241H472.431C472.191 383.241 471.997 383.435 471.997 383.674V385.038C471.997 385.277 472.191 385.471 472.431 385.471Z" fill="#4B728A"/>
<path d="M464.989 385.471H467.842C468.082 385.471 468.276 385.277 468.276 385.038V383.674C468.276 383.435 468.082 383.241 467.842 383.241H464.989C464.749 383.241 464.555 383.435 464.555 383.674V385.038C464.555 385.277 464.749 385.471 464.989 385.471Z" fill="#4B728A"/>
<path d="M457.547 385.471H460.4C460.64 385.471 460.834 385.277 460.834 385.038V383.674C460.834 383.435 460.64 383.241 460.4 383.241H457.547C457.307 383.241 457.113 383.435 457.113 383.674V385.038C457.113 385.277 457.307 385.471 457.547 385.471Z" fill="#4B728A"/>
<path d="M450.105 385.471H452.958C453.198 385.471 453.392 385.277 453.392 385.038V383.674C453.392 383.435 453.198 383.241 452.958 383.241H450.105C449.865 383.241 449.671 383.435 449.671 383.674V385.038C449.671 385.277 449.865 385.471 450.105 385.471Z" fill="#4B728A"/>
<path d="M442.663 385.471H445.516C445.756 385.471 445.95 385.277 445.95 385.038V383.674C445.95 383.435 445.756 383.241 445.516 383.241H442.663C442.423 383.241 442.229 383.435 442.229 383.674V385.038C442.229 385.277 442.423 385.471 442.663 385.471Z" fill="#4B728A"/>
<path d="M554.381 389.19H557.234C557.474 389.19 557.668 388.996 557.668 388.756V387.392C557.668 387.153 557.474 386.959 557.234 386.959H554.381C554.141 386.959 553.947 387.153 553.947 387.392V388.756C553.947 388.996 554.141 389.19 554.381 389.19Z" fill="#4B728A"/>
<path d="M546.939 389.19H549.792C550.032 389.19 550.226 388.996 550.226 388.756V387.392C550.226 387.153 550.032 386.959 549.792 386.959H546.939C546.699 386.959 546.505 387.153 546.505 387.392V388.756C546.505 388.996 546.699 389.19 546.939 389.19Z" fill="#4B728A"/>
<path d="M539.497 389.19H542.35C542.59 389.19 542.784 388.996 542.784 388.756V387.392C542.784 387.153 542.59 386.959 542.35 386.959H539.497C539.257 386.959 539.063 387.153 539.063 387.392V388.756C539.063 388.996 539.257 389.19 539.497 389.19Z" fill="#4B728A"/>
<path d="M532.054 389.19H534.908C535.148 389.19 535.342 388.996 535.342 388.756V387.392C535.342 387.153 535.148 386.959 534.908 386.959H532.054C531.815 386.959 531.621 387.153 531.621 387.392V388.756C531.621 388.996 531.815 389.19 532.054 389.19Z" fill="#4B728A"/>
<path d="M524.612 389.19H527.466C527.706 389.19 527.9 388.996 527.9 388.756V387.392C527.9 387.153 527.706 386.959 527.466 386.959H524.612C524.373 386.959 524.179 387.153 524.179 387.392V388.756C524.179 388.996 524.373 389.19 524.612 389.19Z" fill="#4B728A"/>
<path d="M517.17 389.19H520.024C520.264 389.19 520.458 388.996 520.458 388.756V387.392C520.458 387.153 520.264 386.959 520.024 386.959H517.17C516.931 386.959 516.737 387.153 516.737 387.392V388.756C516.737 388.996 516.931 389.19 517.17 389.19Z" fill="#4B728A"/>
<path d="M509.729 389.19H512.582C512.822 389.19 513.016 388.996 513.016 388.756V387.392C513.016 387.153 512.822 386.959 512.582 386.959H509.729C509.489 386.959 509.295 387.153 509.295 387.392V388.756C509.295 388.996 509.489 389.19 509.729 389.19Z" fill="#4B728A"/>
<path d="M502.287 389.19H505.14C505.38 389.19 505.574 388.996 505.574 388.756V387.392C505.574 387.153 505.38 386.959 505.14 386.959H502.287C502.047 386.959 501.853 387.153 501.853 387.392V388.756C501.853 388.996 502.047 389.19 502.287 389.19Z" fill="#4B728A"/>
<path d="M494.845 389.19H497.698C497.938 389.19 498.132 388.996 498.132 388.756V387.392C498.132 387.153 497.938 386.959 497.698 386.959H494.845C494.605 386.959 494.411 387.153 494.411 387.392V388.756C494.411 388.996 494.605 389.19 494.845 389.19Z" fill="#4B728A"/>
<path d="M487.403 389.19H490.256C490.496 389.19 490.69 388.996 490.69 388.756V387.392C490.69 387.153 490.496 386.959 490.256 386.959H487.403C487.163 386.959 486.969 387.153 486.969 387.392V388.756C486.969 388.996 487.163 389.19 487.403 389.19Z" fill="#4B728A"/>
<path d="M479.961 389.19H482.814C483.054 389.19 483.248 388.996 483.248 388.756V387.392C483.248 387.153 483.054 386.959 482.814 386.959H479.961C479.721 386.959 479.527 387.153 479.527 387.392V388.756C479.527 388.996 479.721 389.19 479.961 389.19Z" fill="#4B728A"/>
<path d="M472.519 389.19H475.372C475.612 389.19 475.806 388.996 475.806 388.756V387.392C475.806 387.153 475.612 386.959 475.372 386.959H472.519C472.279 386.959 472.085 387.153 472.085 387.392V388.756C472.085 388.996 472.279 389.19 472.519 389.19Z" fill="#4B728A"/>
<path d="M465.077 389.19H467.93C468.17 389.19 468.364 388.996 468.364 388.756V387.392C468.364 387.153 468.17 386.959 467.93 386.959H465.077C464.837 386.959 464.643 387.153 464.643 387.392V388.756C464.643 388.996 464.837 389.19 465.077 389.19Z" fill="#4B728A"/>
<path d="M457.635 389.19H460.488C460.728 389.19 460.922 388.996 460.922 388.756V387.392C460.922 387.153 460.728 386.959 460.488 386.959H457.635C457.395 386.959 457.201 387.153 457.201 387.392V388.756C457.201 388.996 457.395 389.19 457.635 389.19Z" fill="#4B728A"/>
<path d="M450.193 389.19H453.046C453.286 389.19 453.48 388.996 453.48 388.756V387.392C453.48 387.153 453.286 386.959 453.046 386.959H450.193C449.953 386.959 449.759 387.153 449.759 387.392V388.756C449.759 388.996 449.953 389.19 450.193 389.19Z" fill="#4B728A"/>
<path d="M442.751 389.19H445.604C445.844 389.19 446.038 388.996 446.038 388.756V387.392C446.038 387.153 445.844 386.959 445.604 386.959H442.751C442.511 386.959 442.317 387.153 442.317 387.392V388.756C442.317 388.996 442.511 389.19 442.751 389.19Z" fill="#4B728A"/>
<path d="M492.612 393.651H521.513C521.752 393.651 521.946 393.457 521.946 393.218V391.854C521.946 391.615 521.752 391.421 521.513 391.421H492.612C492.373 391.421 492.178 391.615 492.178 391.854V393.218C492.178 393.457 492.373 393.651 492.612 393.651Z" fill="#4B728A"/>
<path d="M461.993 318.455H459.466C458.701 318.455 458.08 319.076 458.08 319.841C458.08 320.606 458.701 321.227 459.466 321.227H461.993C462.759 321.227 463.38 320.606 463.38 319.841C463.38 319.076 462.759 318.455 461.993 318.455Z" fill="#FF4A1C"/>
<path d="M490.886 318.455H488.359C487.593 318.455 486.973 319.076 486.973 319.841C486.973 320.606 487.593 321.227 488.359 321.227H490.886C491.652 321.227 492.273 320.606 492.273 319.841C492.273 319.076 491.652 318.455 490.886 318.455Z" fill="#FF4A1C"/>
<path d="M499.072 318.455H496.546C495.78 318.455 495.159 319.076 495.159 319.841C495.159 320.606 495.78 321.227 496.546 321.227H499.072C499.838 321.227 500.459 320.606 500.459 319.841C500.459 319.076 499.838 318.455 499.072 318.455Z" fill="#FF4A1C"/>
<path d="M483.027 318.224H467.325C466.559 318.224 465.938 318.845 465.938 319.61C465.938 320.375 466.559 320.996 467.325 320.996H483.027C483.793 320.996 484.413 320.375 484.413 319.61C484.413 318.845 483.793 318.224 483.027 318.224Z" fill="#FF4A1C"/>
<path d="M521.551 318.224H505.849C505.083 318.224 504.463 318.845 504.463 319.61C504.463 320.375 505.083 320.996 505.849 320.996H521.551C522.317 320.996 522.938 320.375 522.938 319.61C522.938 318.845 522.317 318.224 521.551 318.224Z" fill="#FF4A1C"/>
<path d="M469.697 324.711H467.171C466.405 324.711 465.784 325.331 465.784 326.096C465.784 326.862 466.405 327.482 467.171 327.482H469.697C470.463 327.482 471.084 326.862 471.084 326.096C471.084 325.331 470.463 324.711 469.697 324.711Z" fill="#FF4A1C"/>
<path d="M498.59 324.711H496.064C495.298 324.711 494.677 325.331 494.677 326.096C494.677 326.862 495.298 327.482 496.064 327.482H498.59C499.356 327.482 499.977 326.862 499.977 326.096C499.977 325.331 499.356 324.711 498.59 324.711Z" fill="#FF4A1C"/>
<path d="M506.777 324.711H504.251C503.485 324.711 502.864 325.331 502.864 326.096C502.864 326.862 503.485 327.482 504.251 327.482H506.777C507.543 327.482 508.164 326.862 508.164 326.096C508.164 325.331 507.543 324.711 506.777 324.711Z" fill="#FF4A1C"/>
<path d="M490.731 324.479H475.03C474.264 324.479 473.643 325.1 473.643 325.865C473.643 326.631 474.264 327.251 475.03 327.251H490.731C491.497 327.251 492.118 326.631 492.118 325.865C492.118 325.1 491.497 324.479 490.731 324.479Z" fill="#FF4A1C"/>
<path d="M529.255 324.479H513.554C512.788 324.479 512.167 325.1 512.167 325.865C512.167 326.631 512.788 327.251 513.554 327.251H529.255C530.021 327.251 530.642 326.631 530.642 325.865C530.642 325.1 530.021 324.479 529.255 324.479Z" fill="#FF4A1C"/>
<path d="M477.402 330.966H474.876C474.11 330.966 473.489 331.586 473.489 332.352C473.489 333.117 474.11 333.738 474.876 333.738H477.402C478.168 333.738 478.789 333.117 478.789 332.352C478.789 331.586 478.168 330.966 477.402 330.966Z" fill="#FF4A1C"/>
<path d="M506.295 330.966H503.769C503.003 330.966 502.382 331.586 502.382 332.352C502.382 333.117 503.003 333.738 503.769 333.738H506.295C507.061 333.738 507.682 333.117 507.682 332.352C507.682 331.586 507.061 330.966 506.295 330.966Z" fill="#FF4A1C"/>
<path d="M514.482 330.966H511.955C511.189 330.966 510.568 331.586 510.568 332.352C510.568 333.117 511.189 333.738 511.955 333.738H514.482C515.248 333.738 515.868 333.117 515.868 332.352C515.868 331.586 515.248 330.966 514.482 330.966Z" fill="#FF4A1C"/>
<path d="M498.436 330.735H482.735C481.969 330.735 481.348 331.355 481.348 332.121C481.348 332.886 481.969 333.506 482.735 333.506H498.436C499.202 333.506 499.823 332.886 499.823 332.121C499.823 331.355 499.202 330.735 498.436 330.735Z" fill="#FF4A1C"/>
<path d="M536.96 330.735H521.259C520.493 330.735 519.872 331.355 519.872 332.121C519.872 332.886 520.493 333.506 521.259 333.506H536.96C537.726 333.506 538.347 332.886 538.347 332.121C538.347 331.355 537.726 330.735 536.96 330.735Z" fill="#FF4A1C"/>
<path d="M485.107 337.221H482.581C481.815 337.221 481.194 337.842 481.194 338.607C481.194 339.373 481.815 339.993 482.581 339.993H485.107C485.873 339.993 486.494 339.373 486.494 338.607C486.494 337.842 485.873 337.221 485.107 337.221Z" fill="#FF4A1C"/>
<path d="M514 337.221H511.474C510.708 337.221 510.087 337.842 510.087 338.607C510.087 339.373 510.708 339.993 511.474 339.993H514C514.766 339.993 515.387 339.373 515.387 338.607C515.387 337.842 514.766 337.221 514 337.221Z" fill="#FF4A1C"/>
<path d="M522.186 337.221H519.66C518.894 337.221 518.273 337.842 518.273 338.607C518.273 339.373 518.894 339.993 519.66 339.993H522.186C522.952 339.993 523.573 339.373 523.573 338.607C523.573 337.842 522.952 337.221 522.186 337.221Z" fill="#FF4A1C"/>
<path d="M506.141 336.99H490.44C489.674 336.99 489.053 337.611 489.053 338.376C489.053 339.141 489.674 339.762 490.44 339.762H506.141C506.907 339.762 507.528 339.141 507.528 338.376C507.528 337.611 506.907 336.99 506.141 336.99Z" fill="#FF4A1C"/>
<path d="M490.886 362.095H488.359C487.593 362.095 486.973 362.716 486.973 363.481C486.973 364.247 487.593 364.867 488.359 364.867H490.886C491.652 364.867 492.273 364.247 492.273 363.481C492.273 362.716 491.652 362.095 490.886 362.095Z" fill="#FF4A1C"/>
<path d="M499.072 362.095H496.546C495.78 362.095 495.159 362.716 495.159 363.481C495.159 364.247 495.78 364.867 496.546 364.867H499.072C499.838 364.867 500.459 364.247 500.459 363.481C500.459 362.716 499.838 362.095 499.072 362.095Z" fill="#FF4A1C"/>
<path d="M521.551 362.327H505.849C505.083 362.327 504.463 362.947 504.463 363.712C504.463 364.478 505.083 365.098 505.849 365.098H521.551C522.317 365.098 522.938 364.478 522.938 363.712C522.938 362.947 522.317 362.327 521.551 362.327Z" fill="#FF4A1C"/>
<path d="M461.993 362.095H459.466C458.701 362.095 458.08 362.716 458.08 363.481C458.08 364.247 458.701 364.867 459.466 364.867H461.993C462.759 364.867 463.38 364.247 463.38 363.481C463.38 362.716 462.759 362.095 461.993 362.095Z" fill="#FF4A1C"/>
<path d="M483.027 362.327H467.325C466.559 362.327 465.938 362.947 465.938 363.712C465.938 364.478 466.559 365.098 467.325 365.098H483.027C483.793 365.098 484.413 364.478 484.413 363.712C484.413 362.947 483.793 362.327 483.027 362.327Z" fill="#FF4A1C"/>
<path d="M469.697 355.84H467.171C466.405 355.84 465.784 356.46 465.784 357.226C465.784 357.991 466.405 358.612 467.171 358.612H469.697C470.463 358.612 471.084 357.991 471.084 357.226C471.084 356.46 470.463 355.84 469.697 355.84Z" fill="#FF4A1C"/>
<path d="M498.59 355.84H496.064C495.298 355.84 494.677 356.46 494.677 357.226C494.677 357.991 495.298 358.612 496.064 358.612H498.59C499.356 358.612 499.977 357.991 499.977 357.226C499.977 356.46 499.356 355.84 498.59 355.84Z" fill="#FF4A1C"/>
<path d="M506.777 355.84H504.251C503.485 355.84 502.864 356.46 502.864 357.226C502.864 357.991 503.485 358.612 504.251 358.612H506.777C507.543 358.612 508.164 357.991 508.164 357.226C508.164 356.46 507.543 355.84 506.777 355.84Z" fill="#FF4A1C"/>
<path d="M490.731 356.071H475.03C474.264 356.071 473.643 356.692 473.643 357.457C473.643 358.222 474.264 358.843 475.03 358.843H490.731C491.497 358.843 492.118 358.222 492.118 357.457C492.118 356.692 491.497 356.071 490.731 356.071Z" fill="#FF4A1C"/>
<path d="M477.402 349.585H474.876C474.11 349.585 473.489 350.205 473.489 350.97C473.489 351.736 474.11 352.356 474.876 352.356H477.402C478.168 352.356 478.789 351.736 478.789 350.97C478.789 350.205 478.168 349.585 477.402 349.585Z" fill="#FF4A1C"/>
<path d="M506.295 349.585H503.769C503.003 349.585 502.382 350.205 502.382 350.97C502.382 351.736 503.003 352.356 503.769 352.356H506.295C507.061 352.356 507.682 351.736 507.682 350.97C507.682 350.205 507.061 349.585 506.295 349.585Z" fill="#FF4A1C"/>
<path d="M514.482 349.585H511.955C511.189 349.585 510.568 350.205 510.568 350.97C510.568 351.736 511.189 352.356 511.955 352.356H514.482C515.248 352.356 515.868 351.736 515.868 350.97C515.868 350.205 515.248 349.585 514.482 349.585Z" fill="#FF4A1C"/>
<path d="M498.436 349.816H482.735C481.969 349.816 481.348 350.436 481.348 351.202C481.348 351.967 481.969 352.587 482.735 352.587H498.436C499.202 352.587 499.823 351.967 499.823 351.202C499.823 350.436 499.202 349.816 498.436 349.816Z" fill="#FF4A1C"/>
<path d="M485.107 343.329H482.581C481.815 343.329 481.194 343.95 481.194 344.715C481.194 345.48 481.815 346.101 482.581 346.101H485.107C485.873 346.101 486.494 345.48 486.494 344.715C486.494 343.95 485.873 343.329 485.107 343.329Z" fill="#FF4A1C"/>
<path d="M514 343.329H511.474C510.708 343.329 510.087 343.95 510.087 344.715C510.087 345.48 510.708 346.101 511.474 346.101H514C514.766 346.101 515.387 345.48 515.387 344.715C515.387 343.95 514.766 343.329 514 343.329Z" fill="#FF4A1C"/>
<path d="M522.186 343.329H519.66C518.894 343.329 518.273 343.95 518.273 344.715C518.273 345.48 518.894 346.101 519.66 346.101H522.186C522.952 346.101 523.573 345.48 523.573 344.715C523.573 343.95 522.952 343.329 522.186 343.329Z" fill="#FF4A1C"/>
<path d="M506.141 343.56H490.44C489.674 343.56 489.053 344.181 489.053 344.946C489.053 345.711 489.674 346.332 490.44 346.332H506.141C506.907 346.332 507.528 345.711 507.528 344.946C507.528 344.181 506.907 343.56 506.141 343.56Z" fill="#FF4A1C"/>
<path d="M448.561 435.406L436.702 416.674L473.927 387.022L489.292 370.013C491.288 367.803 493.83 366.155 496.663 365.234C499.496 364.313 502.521 364.152 505.437 364.765C508.352 365.379 511.055 366.746 513.276 368.731C515.496 370.715 517.157 373.247 518.092 376.074C519.477 380.263 519.179 384.825 517.261 388.799C515.343 392.772 511.956 395.846 507.813 397.371L483.517 406.315L448.561 435.406Z" fill="#FFB6B6"/>
<path d="M170.295 299.586V390.629H234.125V299.586C234.126 298.931 233.917 298.293 233.529 297.766C233.14 297.238 232.593 296.85 231.966 296.656C231.671 296.559 231.362 296.511 231.051 296.514H173.377C172.973 296.513 172.573 296.592 172.199 296.746C171.825 296.9 171.485 297.126 171.199 297.412C170.913 297.697 170.685 298.036 170.53 298.409C170.375 298.782 170.295 299.182 170.295 299.586V299.586ZM195.205 330.869C195.222 329.074 195.947 327.358 197.223 326.095C198.499 324.832 200.223 324.123 202.019 324.123C203.815 324.123 205.539 324.832 206.815 326.095C208.091 327.358 208.816 329.074 208.833 330.869V341.432C208.824 343.232 208.102 344.955 206.825 346.225C205.548 347.494 203.82 348.207 202.019 348.207C200.218 348.207 198.49 347.494 197.213 346.225C195.936 344.955 195.214 343.232 195.205 341.432V330.869Z" fill="#2F2E41"/>
<path d="M170.099 387.718V396.497C170.101 396.952 170.282 397.388 170.603 397.71C170.924 398.033 171.359 398.216 171.814 398.219H232.606C233.062 398.217 233.498 398.035 233.819 397.712C234.141 397.389 234.321 396.952 234.321 396.497V387.718H170.099Z" fill="#4B728A"/>
<path d="M69.8804 162.417V328.649C69.8821 330.768 70.725 332.799 72.224 334.297C73.7231 335.795 75.7558 336.637 77.8758 336.639H324.403C326.523 336.637 328.556 335.795 330.055 334.297C331.554 332.799 332.397 330.768 332.399 328.649V162.417C332.393 160.3 331.549 158.272 330.051 156.776C328.552 155.28 326.521 154.439 324.403 154.436H77.8758C75.7577 154.439 73.7269 155.28 72.2283 156.776C70.7297 158.272 69.8854 160.3 69.8804 162.417Z" fill="#4B728A"/>
<path d="M75.6638 164.485V326.599C75.6658 327.731 76.1166 328.816 76.9175 329.616C77.7185 330.416 78.8042 330.867 79.937 330.869H322.351C323.484 330.867 324.569 330.416 325.37 329.616C326.171 328.816 326.622 327.731 326.624 326.599V164.485C326.624 163.352 326.174 162.265 325.373 161.463C324.572 160.66 323.485 160.209 322.351 160.206H79.937C78.8029 160.209 77.7161 160.66 76.915 161.463C76.1139 162.265 75.6639 163.352 75.6638 164.485Z" fill="white"/>
<path d="M120.652 397.625C120.898 397.934 121.212 398.183 121.569 398.354C121.926 398.524 122.317 398.612 122.713 398.61H266.933C267.328 398.609 267.717 398.521 268.073 398.351C268.429 398.182 268.743 397.935 268.991 397.629C269.24 397.323 269.417 396.965 269.509 396.582C269.602 396.199 269.608 395.8 269.528 395.414L267.289 384.788C267.196 384.355 266.996 383.952 266.708 383.615C266.419 383.279 266.051 383.02 265.636 382.862C265.336 382.744 265.017 382.684 264.695 382.684H124.943C124.62 382.684 124.301 382.744 124.001 382.862C123.587 383.02 123.218 383.279 122.93 383.615C122.641 383.952 122.441 384.355 122.349 384.788L120.11 395.414C120.03 395.8 120.037 396.198 120.131 396.58C120.225 396.963 120.403 397.32 120.652 397.625Z" fill="#2F2E41"/>
<path d="M314.484 182.538H87.6581C87.4223 182.533 87.198 182.436 87.0331 182.267C86.8682 182.099 86.7759 181.872 86.7759 181.637C86.7759 181.401 86.8682 181.175 87.0331 181.006C87.198 180.838 87.4223 180.741 87.6581 180.735H314.484C314.72 180.741 314.944 180.838 315.109 181.006C315.274 181.175 315.366 181.401 315.366 181.637C315.366 181.872 315.274 182.099 315.109 182.267C314.944 182.436 314.72 182.533 314.484 182.538V182.538Z" fill="#4B728A"/>
<path d="M103.098 176.133C106.018 176.133 108.385 173.716 108.385 170.733C108.385 167.751 106.018 165.333 103.098 165.333C100.179 165.333 97.8121 167.751 97.8121 170.733C97.8121 173.716 100.179 176.133 103.098 176.133Z" fill="#003049"/>
<path d="M121.36 176.133C124.28 176.133 126.646 173.716 126.646 170.733C126.646 167.751 124.28 165.333 121.36 165.333C118.44 165.333 116.074 167.751 116.074 170.733C116.074 173.716 118.44 176.133 121.36 176.133Z" fill="#003049"/>
<path d="M139.622 176.133C142.541 176.133 144.908 173.716 144.908 170.733C144.908 167.751 142.541 165.333 139.622 165.333C136.702 165.333 134.335 167.751 134.335 170.733C134.335 173.716 136.702 176.133 139.622 176.133Z" fill="#003049"/>
<path d="M303.487 166.669H290.517C290.26 166.675 290.017 166.781 289.837 166.964C289.658 167.147 289.558 167.393 289.558 167.65C289.558 167.906 289.658 168.152 289.837 168.335C290.017 168.519 290.26 168.625 290.517 168.631H303.487C303.745 168.627 303.991 168.522 304.173 168.338C304.354 168.155 304.455 167.907 304.455 167.65C304.455 167.392 304.354 167.144 304.173 166.961C303.991 166.777 303.745 166.672 303.487 166.669Z" fill="#003049"/>
<path d="M303.487 170.353H290.517C290.26 170.358 290.016 170.464 289.837 170.648C289.657 170.831 289.557 171.077 289.557 171.334C289.557 171.59 289.657 171.836 289.837 172.02C290.016 172.203 290.26 172.309 290.517 172.314H303.487C303.746 172.311 303.992 172.207 304.174 172.023C304.355 171.839 304.457 171.592 304.457 171.334C304.457 171.075 304.355 170.828 304.174 170.644C303.992 170.46 303.746 170.356 303.487 170.353V170.353Z" fill="#003049"/>
<path d="M303.487 174.037H290.517C290.26 174.043 290.017 174.149 289.837 174.332C289.658 174.515 289.558 174.761 289.558 175.018C289.558 175.274 289.658 175.52 289.837 175.703C290.017 175.887 290.26 175.992 290.517 175.998H303.487C303.745 175.995 303.991 175.89 304.173 175.706C304.354 175.523 304.455 175.275 304.455 175.018C304.455 174.76 304.354 174.512 304.173 174.329C303.991 174.145 303.745 174.04 303.487 174.037V174.037Z" fill="#003049"/>
<path d="M616.181 391.571C616.572 392.71 617.315 393.695 618.302 394.386C619.289 395.077 620.469 395.437 621.674 395.416L645.209 394.81C646.422 394.787 647.596 394.371 648.553 393.626C649.511 392.881 650.202 391.846 650.522 390.676L653.853 355.09C655.034 355.625 656.321 355.889 657.618 355.863C658.744 355.835 659.854 355.585 660.885 355.128C661.915 354.671 662.845 354.016 663.622 353.2C664.398 352.384 665.007 351.423 665.412 350.372C665.817 349.321 666.011 348.2 665.982 347.074C665.954 345.948 665.704 344.839 665.247 343.81C664.79 342.78 664.134 341.851 663.317 341.075C662.5 340.299 661.539 339.691 660.487 339.286C659.435 338.881 658.314 338.688 657.187 338.716C656.668 338.714 656.151 338.768 655.644 338.876C655.093 338.28 654.423 337.806 653.677 337.485C652.931 337.163 652.126 337.001 651.314 337.009L615.112 337.943C614.812 337.954 614.513 337.992 614.219 338.054C613.425 338.202 612.672 338.518 612.011 338.981C611.349 339.444 610.795 340.044 610.385 340.739C609.975 341.434 609.718 342.209 609.633 343.011C609.547 343.814 609.635 344.625 609.89 345.391L616.181 391.571ZM654.536 352.674L656.905 344.194C657.175 343.214 657.181 342.181 656.924 341.198C657.039 341.198 657.14 341.144 657.255 341.143C658.88 341.11 660.452 341.721 661.626 342.844C662.801 343.967 663.481 345.509 663.519 347.133C663.557 348.757 662.95 350.329 661.829 351.506C660.709 352.682 659.167 353.367 657.542 353.409C656.492 353.442 655.452 353.188 654.536 352.674Z" fill="#2F2E41"/>
<path d="M614.219 338.054C614.99 342.461 623.662 345.559 634.089 345.02C643.677 344.579 651.516 341.215 652.953 337.227C652.421 337.07 651.868 336.997 651.314 337.009L615.112 337.943C614.812 337.954 614.513 337.991 614.219 338.054V338.054Z" fill="#202122"/>
<path d="M636 372.016C636.047 372.004 636.093 371.984 636.134 371.957L641.245 368.614C641.306 368.574 641.357 368.519 641.392 368.454C641.428 368.389 641.446 368.317 641.446 368.243C641.446 368.17 641.428 368.097 641.393 368.032C641.357 367.967 641.307 367.912 641.245 367.872L635.933 364.395C635.884 364.363 635.829 364.341 635.772 364.33C635.714 364.318 635.655 364.319 635.598 364.331C635.541 364.342 635.486 364.365 635.438 364.398C635.39 364.431 635.348 364.473 635.316 364.522C635.284 364.571 635.262 364.625 635.251 364.683C635.241 364.74 635.241 364.799 635.253 364.856C635.265 364.914 635.288 364.968 635.321 365.016C635.355 365.064 635.397 365.105 635.446 365.137L640.191 368.243L635.647 371.214C635.559 371.272 635.495 371.359 635.465 371.459C635.435 371.56 635.442 371.668 635.484 371.764C635.526 371.86 635.601 371.939 635.695 371.985C635.79 372.031 635.898 372.042 636 372.016H636Z" fill="#FF4A1C"/>
<path d="M627.927 372.388C628.013 372.366 628.09 372.32 628.149 372.254C628.208 372.188 628.246 372.106 628.258 372.018C628.27 371.931 628.256 371.841 628.217 371.762C628.178 371.683 628.116 371.617 628.039 371.573L623.328 368.874L627.881 365.494C627.928 365.459 627.968 365.416 627.998 365.366C628.027 365.316 628.047 365.26 628.056 365.203C628.064 365.145 628.061 365.087 628.047 365.03C628.033 364.974 628.008 364.92 627.973 364.874C627.938 364.827 627.894 364.787 627.844 364.758C627.794 364.728 627.739 364.708 627.681 364.699C627.624 364.691 627.565 364.694 627.508 364.708C627.452 364.722 627.399 364.747 627.352 364.782L622.254 368.566C622.195 368.61 622.147 368.668 622.116 368.735C622.085 368.801 622.071 368.875 622.075 368.948C622.079 369.022 622.102 369.093 622.141 369.156C622.18 369.219 622.233 369.271 622.297 369.307L627.597 372.343C627.697 372.4 627.815 372.416 627.927 372.388V372.388Z" fill="#FF4A1C"/>
<path d="M635.491 374.946C635.534 374.935 635.575 374.918 635.613 374.894C635.663 374.864 635.706 374.824 635.741 374.777C635.775 374.73 635.8 374.677 635.814 374.62C635.828 374.563 635.83 374.505 635.821 374.447C635.812 374.389 635.792 374.334 635.762 374.284L628.516 362.381C628.455 362.281 628.356 362.209 628.242 362.182C628.127 362.154 628.007 362.173 627.906 362.234C627.806 362.295 627.733 362.394 627.706 362.508C627.678 362.622 627.696 362.743 627.757 362.844L635.003 374.746C635.052 374.827 635.126 374.89 635.214 374.926C635.302 374.962 635.399 374.969 635.491 374.946Z" fill="#FF4A1C"/>
<path d="M228.173 231.539H188.914C187.313 231.539 186.014 232.837 186.014 234.437V238.27C186.014 239.87 187.313 241.167 188.914 241.167H228.173C229.774 241.167 231.072 239.87 231.072 238.27V234.437C231.072 232.837 229.774 231.539 228.173 231.539Z" fill="#FF4A1C"/>
<path d="M251.056 250.795H166.031C164.429 250.795 163.131 252.092 163.131 253.693V257.525C163.131 259.126 164.429 260.423 166.031 260.423H251.056C252.658 260.423 253.956 259.126 253.956 257.525V253.693C253.956 252.092 252.658 250.795 251.056 250.795Z" fill="#003049"/>
<path d="M251.056 270.051H166.031C164.429 270.051 163.131 271.348 163.131 272.948V276.781C163.131 278.381 164.429 279.679 166.031 279.679H251.056C252.658 279.679 253.956 278.381 253.956 276.781V272.948C253.956 271.348 252.658 270.051 251.056 270.051Z" fill="#003049"/>
<path d="M258.264 334.531L258.456 335.138L258.466 335.158L264.263 352.769L270.932 373.063L283.478 411.2L283.6 417.124V417.144L284.532 464.801L281.948 471.262L284.856 481.854C284.856 481.854 283.519 465.842 276.344 475.038C272.28 480.263 267.527 485.61 263.625 490.623C269.31 492.921 275.087 495.001 280.955 496.861C282.222 497.266 283.499 497.651 284.775 498.035C285.049 498.116 285.323 498.197 285.596 498.278C305.047 504.026 325.156 507.256 345.43 507.889C346.484 507.919 347.518 507.939 348.521 507.96C348.876 507.97 349.22 507.98 349.565 507.98C350.7 507.99 351.825 508 352.96 508C355.25 508 357.53 507.966 359.8 507.899C376.603 507.426 393.307 505.168 409.631 501.164C409.52 494.43 409.216 486.562 408.78 478.157C408.577 474.035 404.027 469.569 403.753 465.255C403.561 462.015 407.645 458.966 407.432 455.675C406.054 435.412 404.331 443.19 403.054 428.841C402.922 427.433 402.801 426.086 402.689 424.8C401.868 415.585 401.301 409.823 401.301 409.823L406.753 375.483L415.317 321.568L414.658 320.485L413.918 320.12L368.749 297.781L366.297 291.502C365.582 289.693 364.342 288.139 362.737 287.04C361.131 285.941 359.233 285.347 357.287 285.335L327.533 285.213C325.988 285.206 324.465 285.568 323.088 286.267C321.712 286.966 320.522 287.983 319.618 289.234L311.561 300.383L258.264 334.531Z" fill="#4B728A"/>
<path d="M290.339 402.714L283.6 417.124L278.999 426.967L271.084 468.376L267.121 472.578L263.726 457.701L228.193 465.584C227.027 459.113 227.881 465.803 227.161 458.704C227.364 458.502 227.577 458.299 227.79 458.097C228.357 457.57 228.834 457.074 228.823 456.598C228.418 432.112 229.634 390.44 239.789 365.194C241.379 361.072 243.476 357.164 246.032 353.559C246.234 353.285 246.427 353.012 246.619 352.738C251.302 346.186 254.261 339.736 258.456 335.148V335.138C258.483 335.117 258.506 335.093 258.527 335.067C258.543 335.06 258.556 335.049 258.568 335.037L287.39 319.766L288.627 354.48L289.508 379.432L290.339 402.714Z" fill="#4B728A"/>
<path d="M394.267 406.807L402.685 424.805L405.624 431.073L413.536 472.477L417.486 476.67L420.889 461.796L422.488 461.468L451.323 455.501L459.728 482.173C461.622 479.019 462.369 475.309 461.841 471.668C461.313 468.028 459.543 464.682 456.831 462.195C456.257 461.676 455.779 461.171 455.792 460.693C456.271 431.892 454.508 379.304 438.587 357.66C433.53 350.791 430.496 343.949 426.082 339.17C426.068 339.156 426.068 339.142 426.055 339.142L415.313 321.567L414.657 320.488L413.919 320.12L394.267 406.807Z" fill="#4B728A"/>
<path d="M343.269 276.752C365.131 276.752 382.854 259.043 382.854 237.197C382.854 215.352 365.131 197.642 343.269 197.642C321.407 197.642 303.684 215.352 303.684 237.197C303.684 259.043 321.407 276.752 343.269 276.752Z" fill="#FFB6B6"/>
<path d="M396.773 209.568C396.466 209.241 396.097 208.978 395.686 208.797C395.275 208.615 394.832 208.518 394.383 208.512L394.979 206.861C395.173 206.341 395.225 205.778 395.13 205.231C395.036 204.684 394.797 204.172 394.439 203.748C394.081 203.323 393.617 203.001 393.093 202.815C392.57 202.629 392.006 202.585 391.461 202.688L389.293 203.106L389.497 201.659C389.576 201.12 389.512 200.57 389.313 200.063C389.114 199.556 388.787 199.109 388.363 198.767C387.939 198.425 387.433 198.199 386.895 198.111C386.357 198.024 385.806 198.078 385.295 198.268C384.831 198.45 384.331 198.527 383.833 198.492C383.335 198.456 382.851 198.31 382.417 198.063C381.981 197.824 381.602 197.493 381.308 197.093C381.013 196.693 380.81 196.233 380.711 195.746L379.956 192.107L379.876 191.912C376.198 185.786 369.127 181.33 360.474 179.697C352.771 178.232 344.874 178.978 337.26 179.679C334.24 179.963 330.828 180.282 327.985 182.022C325.569 183.514 323.526 186.496 323.943 189.506C316.436 187.207 308.388 191.796 304.399 197.584C299.673 204.473 298.9 213.101 298.775 219.848C298.438 235.809 301.734 248.867 308.547 258.667C309.045 259.378 309.169 260.86 310.155 261.357L309.951 261.029C311.053 261.579 312.172 262.467 311.755 263.417C310.555 266.151 318.524 272.196 324.139 274.194C334.382 277.842 348.001 277.531 357.578 276.218L357.915 273.954C361.371 273.483 363.805 272.587 364.489 271.184C365.697 270.154 366.728 269.231 367.625 268.379L367.634 268.37C367.652 268.352 367.687 268.326 367.705 268.308C372.032 264.162 373.035 261.801 373.488 258.206C373.924 254.682 373.151 251.104 372.36 247.882C389.009 250.456 365.804 230.163 381.315 226.239C381.493 226.185 381.674 226.14 381.857 226.106C382.31 226 382.763 225.893 383.199 225.769C385.297 225.2 387.306 224.342 389.169 223.221C393.504 220.585 394.934 217.087 397.173 213.146C397.496 212.584 397.631 211.935 397.559 211.291C397.488 210.648 397.212 210.044 396.773 209.568V209.568Z" fill="#2F2E41"/>
<path d="M483.275 409.623C483.266 411.176 483.249 413.351 483.178 416.041C483.169 416.414 483.16 416.796 483.151 417.186C483.035 422.131 482.92 426.276 482.733 430.884C482.724 431.203 482.716 431.514 482.698 431.833C482.449 438.26 482.058 445.744 481.383 457.595C480.13 479.486 477.945 460.604 475.751 468.283C475.644 468.665 475.528 469.117 475.422 469.65C475.09 471.582 474.529 473.469 473.752 475.269C472.588 475.962 471.389 476.627 470.207 477.293C466.84 479.166 463.42 480.968 459.973 482.682C458.036 483.64 456.091 484.581 454.136 485.487C453.825 485.629 453.523 485.771 453.221 485.904C443.213 490.53 432.898 494.463 422.35 497.675C420.289 498.296 418.237 498.9 416.158 499.459C413.99 500.063 411.822 500.631 409.628 501.164C393.304 505.168 376.6 507.427 359.798 507.901C357.533 507.972 355.25 507.999 352.958 507.999C351.821 507.999 350.701 507.99 349.564 507.981C349.218 507.981 348.871 507.972 348.525 507.964C347.521 507.937 346.482 507.919 345.433 507.893C325.159 507.261 305.051 504.03 285.6 498.279L284.774 498.039C283.495 497.648 282.225 497.267 280.954 496.858C275.091 495.003 269.313 492.926 263.622 490.627C259.278 488.878 254.984 487.002 250.74 484.999C250.701 484.988 250.665 484.97 250.634 484.945C249.745 484.537 248.848 484.111 247.96 483.676C247.844 483.614 247.72 483.552 247.595 483.489C244.282 481.874 241.003 480.181 237.761 478.412C235.034 472.153 231.196 470.955 228.815 465.451C228.122 463.816 227.621 462.106 227.322 460.356C227.322 460.338 227.313 460.32 227.313 460.293C227.562 463.596 226.256 454.435 227.305 460.258C227.296 460.151 227.287 460.036 227.278 459.903C227.251 459.583 227.216 459.193 227.162 458.704C224.115 428.975 224.311 394.976 222.987 366.959C222.898 365.149 222.806 363.415 222.712 361.757C222.685 361.207 222.649 360.666 222.614 360.133C222.676 359.973 222.747 359.804 222.827 359.645C222.844 359.599 222.865 359.554 222.889 359.512C222.915 359.456 222.945 359.403 222.978 359.352C222.996 359.325 223.023 359.29 223.04 359.263C223.053 359.233 223.068 359.203 223.085 359.174C223.165 359.05 223.254 358.917 223.351 358.793C223.396 358.739 223.431 358.695 223.476 358.65C223.506 358.605 223.542 358.563 223.582 358.526C223.609 358.484 223.642 358.445 223.68 358.411C223.716 358.375 223.751 358.331 223.795 358.287C223.814 358.259 223.839 358.235 223.867 358.216C223.937 358.135 224.014 358.061 224.097 357.994C224.414 357.702 224.753 357.435 225.11 357.195C225.235 357.115 225.368 357.035 225.492 356.946C226.388 356.411 227.33 355.959 228.308 355.597C228.646 355.473 228.984 355.357 229.348 355.233C229.481 355.197 229.605 355.153 229.739 355.109C229.934 355.046 230.13 354.984 230.334 354.94C231.347 354.638 232.439 354.381 233.621 354.141C233.763 354.114 233.914 354.088 234.065 354.052C234.278 354.008 234.501 353.972 234.723 353.937C235.025 353.884 235.336 353.83 235.647 353.777C238.285 353.36 241.279 353.049 244.584 352.845C244.895 352.827 245.206 352.809 245.516 352.792C245.881 352.774 246.245 352.756 246.618 352.738C246.929 352.721 247.249 352.712 247.569 352.703C247.88 352.685 248.199 352.676 248.528 352.667C249.425 352.641 250.349 352.614 251.291 352.596C253.974 352.543 256.799 352.561 259.766 352.623C261.143 352.658 262.547 352.694 263.986 352.756C264.084 352.756 264.173 352.765 264.261 352.765C265.514 352.809 266.776 352.863 268.073 352.934C268.979 352.978 269.894 353.022 270.809 353.076C271.671 353.129 272.541 353.182 273.421 353.244C274.105 353.28 274.789 353.333 275.482 353.378C276.068 353.422 276.654 353.466 277.241 353.502L278.04 353.555C278.476 353.591 278.911 353.617 279.355 353.662C280.332 353.741 281.31 353.821 282.305 353.901C283.291 353.99 284.295 354.079 285.298 354.168C286.302 354.256 287.315 354.354 288.328 354.452C288.434 354.461 288.532 354.469 288.63 354.478C289.554 354.576 290.478 354.665 291.41 354.762C291.624 354.78 291.846 354.798 292.059 354.824C292.948 354.914 293.855 355.018 294.753 355.114C295.028 355.143 295.302 355.172 295.578 355.202C296.281 355.279 296.974 355.345 297.682 355.428C298.615 355.535 299.566 355.632 300.49 355.757C301.209 355.836 301.929 355.916 302.648 356.005C303.777 356.138 304.923 356.28 306.069 356.431C306.504 356.485 306.939 356.538 307.375 356.6C310.644 357.008 313.949 357.461 317.307 357.931C322.397 358.651 327.568 359.432 332.774 360.275C337.989 361.118 343.233 362.009 348.507 362.947C349.84 363.187 351.172 363.426 352.514 363.675C353.118 363.79 353.722 363.906 354.326 364.021C355.356 364.208 356.387 364.403 357.417 364.598C358.448 364.793 359.479 364.989 360.509 365.193C361.735 365.433 362.97 365.672 364.196 365.912C372.271 367.51 380.302 369.214 388.138 370.999C389.426 371.291 390.714 371.593 391.993 371.886C394.552 372.481 397.087 373.085 399.598 373.697C400.291 373.857 400.975 374.026 401.659 374.194C403.365 374.62 405.071 375.047 406.75 375.482L407.043 375.561C408.278 375.863 409.486 376.174 410.694 376.494C413.546 377.239 416.35 377.994 419.107 378.757C420.937 379.263 422.746 379.775 424.535 380.293C427.209 381.065 429.83 381.846 432.379 382.636C433.01 382.832 433.641 383.027 434.263 383.213C436.128 383.79 437.967 384.376 439.753 384.962C441.175 385.424 442.56 385.894 443.929 386.365C445.297 386.835 446.638 387.306 447.953 387.776C448.797 388.078 449.632 388.398 450.467 388.7C451.666 389.143 452.848 389.587 454.003 390.031C454.358 390.164 454.705 390.306 455.051 390.439C455.273 390.537 455.486 390.617 455.7 390.706C456.117 390.874 456.544 391.034 456.952 391.203C457.37 391.363 457.778 391.531 458.187 391.709C458.587 391.869 458.996 392.037 459.386 392.206C459.786 392.366 460.177 392.534 460.568 392.712C460.897 392.845 461.217 392.987 461.527 393.129C462.158 393.404 462.789 393.68 463.402 393.964C463.704 394.106 464.006 394.239 464.308 394.381L465.001 394.7C465.099 394.754 465.196 394.798 465.294 394.842C465.516 394.949 465.747 395.064 465.969 395.171C466.485 395.411 466.991 395.668 467.489 395.908C468.155 396.245 468.803 396.582 469.425 396.911C470.056 397.248 470.669 397.586 471.255 397.914C471.353 397.967 471.442 398.021 471.54 398.074C471.673 398.145 471.806 398.225 471.939 398.296C472.392 398.553 472.828 398.819 473.263 399.077C474.116 399.601 474.924 400.115 475.679 400.63C475.848 400.746 476.008 400.861 476.177 400.968C476.737 401.367 477.27 401.758 477.767 402.157C477.767 402.166 477.767 402.166 477.776 402.166C477.945 402.29 478.105 402.423 478.265 402.548C478.398 402.672 478.54 402.779 478.673 402.903C479.135 403.302 479.562 403.684 479.953 404.075C480.084 404.195 480.208 404.323 480.326 404.456C480.377 404.499 480.425 404.547 480.468 404.598C480.646 404.776 480.805 404.953 480.956 405.131C480.98 405.155 481.001 405.182 481.019 405.211C481.232 405.459 481.427 405.708 481.614 405.957C481.703 406.081 481.8 406.205 481.88 406.329C481.987 406.48 482.094 406.64 482.182 406.791C482.262 406.915 482.333 407.048 482.405 407.173C482.593 407.493 482.754 407.828 482.884 408.176C482.984 408.412 483.064 408.655 483.124 408.904C483.191 409.14 483.242 409.38 483.275 409.623V409.623Z" fill="#D7CEBB"/>
<path opacity="0.2" d="M483.275 409.623C483.266 411.176 483.249 413.351 483.178 416.041C483.169 416.414 483.151 416.796 483.142 417.186C483.053 420.959 482.92 425.619 482.733 430.884C482.724 431.203 482.716 431.514 482.698 431.833C482.449 438.26 482.058 445.744 481.383 457.595C480.13 479.486 477.945 460.604 475.751 468.283C469.656 464.537 462.976 460.613 455.833 456.583C454.545 455.855 453.245 455.124 451.933 454.39C437.648 446.427 421.692 438.083 405.035 429.818C404.378 429.49 403.711 429.161 403.054 428.842C364.898 409.996 323.25 391.665 289.509 379.432C282.997 377.071 276.779 374.94 270.933 373.067C258.62 369.134 247.977 366.382 239.786 365.193C231.258 363.95 225.368 364.394 222.987 366.959C222.898 365.149 222.806 363.415 222.712 361.757C222.676 361.207 222.64 360.666 222.605 360.133C222.66 359.987 222.731 359.847 222.8 359.707C222.81 359.686 222.817 359.665 222.827 359.645C222.844 359.599 222.865 359.554 222.889 359.512C222.915 359.456 222.945 359.403 222.978 359.352C223.007 359.289 223.043 359.229 223.085 359.174C223.165 359.05 223.253 358.917 223.351 358.792C223.423 358.699 223.5 358.61 223.582 358.526C223.609 358.483 223.642 358.445 223.68 358.411C223.715 358.375 223.751 358.331 223.795 358.286C223.814 358.259 223.839 358.234 223.867 358.216C223.937 358.135 224.014 358.061 224.097 357.994C224.414 357.702 224.753 357.435 225.11 357.195C225.235 357.115 225.368 357.035 225.492 356.946C226.388 356.411 227.33 355.959 228.308 355.597C228.646 355.472 228.984 355.357 229.348 355.233C229.481 355.197 229.605 355.153 229.739 355.109C229.934 355.046 230.13 354.984 230.334 354.94C231.347 354.638 232.439 354.381 233.621 354.141C233.976 354.07 234.349 353.999 234.723 353.937C235.025 353.883 235.336 353.83 235.647 353.777C238.285 353.36 241.279 353.049 244.584 352.845C244.895 352.827 245.206 352.809 245.516 352.792C245.881 352.774 246.245 352.756 246.618 352.738C246.929 352.721 247.249 352.712 247.569 352.703C247.88 352.685 248.199 352.676 248.528 352.667C249.425 352.641 250.349 352.614 251.291 352.596C253.974 352.552 256.799 352.57 259.766 352.632C261.143 352.658 262.547 352.703 263.986 352.765C264.075 352.765 264.173 352.774 264.261 352.774C265.514 352.809 266.784 352.871 268.073 352.934C268.979 352.978 269.894 353.022 270.809 353.076C271.671 353.129 272.541 353.182 273.421 353.244C274.105 353.28 274.789 353.333 275.482 353.377C276.068 353.422 276.654 353.466 277.241 353.502C277.943 353.555 278.644 353.608 279.355 353.662C280.332 353.741 281.31 353.821 282.305 353.901C283.291 353.99 284.294 354.079 285.298 354.168C286.302 354.256 287.315 354.354 288.328 354.452C288.434 354.46 288.532 354.469 288.63 354.478C289.554 354.576 290.478 354.665 291.41 354.762C296.581 355.286 301.902 355.899 307.375 356.6C310.644 357.017 313.955 357.464 317.307 357.94C322.397 358.659 327.568 359.441 332.774 360.275C337.989 361.118 343.233 362.009 348.507 362.947C349.84 363.187 351.172 363.426 352.514 363.675C354.148 363.977 355.783 364.284 357.418 364.598C358.448 364.793 359.479 364.989 360.509 365.193C361.735 365.433 362.97 365.672 364.196 365.912C372.271 367.51 380.302 369.214 388.138 370.999C389.426 371.291 390.714 371.593 391.994 371.886C394.552 372.481 397.087 373.085 399.598 373.697C400.291 373.866 400.975 374.035 401.659 374.203C403.374 374.629 405.071 375.055 406.75 375.481V375.49C406.847 375.508 406.945 375.535 407.043 375.561C408.269 375.872 409.486 376.183 410.694 376.502C413.546 377.248 416.35 378 419.107 378.757C420.937 379.272 422.749 379.778 424.535 380.293C427.209 381.074 429.83 381.855 432.38 382.636C433.01 382.832 433.641 383.027 434.263 383.213C436.129 383.799 437.959 384.382 439.753 384.962C441.175 385.424 442.56 385.894 443.929 386.365C445.297 386.835 446.638 387.306 447.953 387.776C448.806 388.078 449.641 388.389 450.467 388.691C451.675 389.134 452.848 389.578 454.003 390.031C454.358 390.164 454.705 390.306 455.051 390.439C455.7 390.688 456.33 390.945 456.952 391.203C457.37 391.363 457.779 391.531 458.187 391.709C458.587 391.869 458.996 392.037 459.386 392.206C459.786 392.366 460.177 392.534 460.568 392.712C460.897 392.845 461.217 392.987 461.528 393.129C462.158 393.404 462.789 393.68 463.402 393.964C463.704 394.106 464.006 394.239 464.308 394.381L465.001 394.7C465.099 394.754 465.197 394.798 465.294 394.842C466.049 395.198 466.778 395.553 467.489 395.908C468.155 396.245 468.803 396.582 469.425 396.911C470.163 397.301 470.864 397.683 471.54 398.074C471.673 398.145 471.806 398.225 471.939 398.296C472.392 398.553 472.828 398.819 473.263 399.077C474.116 399.601 474.924 400.115 475.68 400.63C476.426 401.145 477.119 401.651 477.767 402.157C477.767 402.166 477.767 402.166 477.776 402.166C478.087 402.415 478.389 402.663 478.673 402.903C479.135 403.302 479.562 403.684 479.953 404.075C480.084 404.195 480.208 404.323 480.326 404.456C480.377 404.499 480.425 404.547 480.468 404.598C480.654 404.803 480.841 405.007 481.019 405.211C481.232 405.459 481.427 405.708 481.614 405.957C481.703 406.081 481.801 406.205 481.88 406.329C481.987 406.48 482.094 406.64 482.183 406.791C482.263 406.915 482.334 407.048 482.405 407.173C482.593 407.493 482.754 407.828 482.884 408.176C482.982 408.412 483.062 408.656 483.124 408.904C483.192 409.14 483.242 409.38 483.275 409.623V409.623Z" fill="black"/>
</g>
<defs>
<clipPath id="clip0_26_112">
<rect width="699" height="508" fill="white"/>
</clipPath>
</defs>
</svg>
