<svg width="58" height="58" viewBox="0 0 58 58" fill="none" xmlns="http://www.w3.org/2000/svg">
<g clip-path="url(#clip0_38_407)">
<path d="M18.1299 0H24.36V2.60517H20.735V5.21033H24.36V7.8155H18.1299V0ZM25.6046 0H31.8372V2.26683H28.2122V2.71875H31.8372V7.92908H25.6046V5.55108H29.2296V5.09675H25.6046V0ZM33.0842 0H39.312V2.26683H35.687V2.71875H39.312V7.92908H33.0842V5.55108H36.7092V5.09675H33.0842V0Z" fill="#003049"/>
<path fill-rule="evenodd" clip-rule="evenodd" d="M28.9783 58L12.1969 53.3407L7.25 11.3994H50.75L45.8055 53.3358L28.9783 58ZM17.0303 30.3847L17.4918 35.5274H35.3196L34.7227 42.1974L28.9855 43.7489H28.9807L23.2532 42.2022L22.8858 38.1012H17.7214L18.4416 46.1777L28.9783 49.1018L39.5318 46.1777L40.8175 31.7647L40.9432 30.3847L41.8712 19.9713H16.1047L16.5735 25.1164H36.2355L35.7667 30.3847H17.0303V30.3847Z" fill="#003049"/>
</g>
<defs>
<clipPath id="clip0_38_407">
<rect width="58" height="58" fill="white"/>
</clipPath>
</defs>
</svg>
