<svg width="58" height="59" viewBox="0 0 58 59" fill="none" xmlns="http://www.w3.org/2000/svg">
<g clip-path="url(#clip0_38_376)">
<path d="M12.2766 0.375H14.8914V2.95842H17.2839V0.375H19.8988V8.19533H17.2839V5.57808H14.8914V8.19533H12.279V0.375H12.2766ZM23.3353 2.96808H21.0346V0.375H28.2532V2.96808H25.9501V8.19533H23.3353V2.96808V2.96808ZM29.3987 0.375H32.1247L33.8019 3.12275L35.4766 0.375H38.2026V8.19533H35.5999V4.319L33.8019 7.10058H33.7559L31.9555 4.32142V8.19533H29.3987V0.375V0.375ZM39.5028 0.375H42.12V5.61192H45.7934V8.19775H39.5028V0.375V0.375Z" fill="#003049"/>
<path fill-rule="evenodd" clip-rule="evenodd" d="M12.1945 53.7157L7.25 11.7744H50.75L45.8031 53.7108L28.9758 58.375L12.1945 53.7157ZM22.1922 30.7573L21.7234 25.489H41.4072L41.8663 20.3463H16.1047L17.4918 35.9024H35.3196L34.7227 42.5724L28.9855 44.1239H28.9807L23.2532 42.5772L22.8858 38.4762H17.719L18.4392 46.5527L28.9758 49.4768L39.5294 46.5527L40.8151 32.1397L40.9408 30.7597H22.1922V30.7573Z" fill="#003049"/>
</g>
<defs>
<clipPath id="clip0_38_376">
<rect width="58" height="58" fill="white" transform="translate(0 0.375)"/>
</clipPath>
</defs>
</svg>
