<svg width="58" height="58" viewBox="0 0 58 58" fill="none" xmlns="http://www.w3.org/2000/svg">
<g clip-path="url(#clip0_38_412)">
<path fill-rule="evenodd" clip-rule="evenodd" d="M0 0H58V58H0V0ZM44.3386 48.6233C41.6488 48.6233 40.1288 47.2217 38.9615 45.3125L34.5318 47.8863C36.1316 51.0473 39.4013 53.4591 44.4643 53.4591C49.6408 53.4591 53.4953 50.7718 53.4953 45.8635C53.4953 41.3129 50.8805 39.2902 46.2502 37.3013L44.8872 36.7188C42.5478 35.7038 41.5353 35.0441 41.5353 33.408C41.5353 32.0861 42.5503 31.0735 44.1453 31.0735C45.7088 31.0735 46.7166 31.7333 47.6518 33.408L51.8955 30.6844C50.0999 27.5258 47.6108 26.3199 44.1453 26.3199C39.2781 26.3199 36.163 29.4326 36.163 33.5216C36.163 37.9562 38.773 40.0563 42.7073 41.731L44.0703 42.3158C46.5571 43.4033 48.0385 44.0655 48.0385 45.9336C48.0385 47.4948 46.5958 48.6233 44.3386 48.6233V48.6233ZM23.2169 48.5871C21.344 48.5871 20.5634 47.3063 19.7079 45.7838L15.2709 48.4711C16.5566 51.1922 19.0844 53.4494 23.4465 53.4494C28.2774 53.4494 31.5858 50.8805 31.5858 45.2376V26.6293H26.1362V45.1651C26.1362 47.8887 25.0053 48.5871 23.2145 48.5871H23.2169Z" fill="#003049"/>
</g>
<defs>
<clipPath id="clip0_38_412">
<rect width="58" height="58" fill="white"/>
</clipPath>
</defs>
</svg>
