<svg width="66" height="66" viewBox="0 0 66 66" fill="none" xmlns="http://www.w3.org/2000/svg">
<path d="M60.9998 14.6663C62.2248 15.2968 63.2403 16.2055 63.943 17.2998C64.6457 18.3941 65.0103 19.635 64.9998 20.8959V44.2022C64.9994 45.4739 64.6176 46.7224 63.8939 47.8184C63.1702 48.9143 62.131 49.8178 60.8838 50.4352L36.8839 64.1031C35.6957 64.6913 34.359 65 32.9999 65C31.6408 65 30.3041 64.6913 29.1159 64.1031L5.11598 50.4352C3.86941 49.8181 2.83052 48.9152 2.10685 47.8199C1.38319 46.7246 1.00105 45.4769 1 44.2057V20.8959C1.00034 19.6241 1.38214 18.3756 2.10584 17.2796C2.82954 16.1837 3.86882 15.2802 5.11598 14.6628L29.1159 1.92561C30.3391 1.31859 31.7159 1 33.1159 1C34.5159 1 35.8927 1.31859 37.1159 1.92561L61.1158 14.6663H60.9998V14.6663Z" stroke="black" stroke-width="2" stroke-linecap="round" stroke-linejoin="round"/>
<path d="M24.9999 47.2117H32.9999C35.1216 47.2117 37.1564 46.4604 38.6567 45.1229C40.157 43.7855 40.9998 41.9715 40.9998 40.0801C40.9998 38.1886 40.157 36.3747 38.6567 35.0372C37.1564 33.6998 35.1216 32.9484 32.9999 32.9484H24.9999H32.9999C35.1216 32.9484 37.1564 32.197 38.6567 30.8596C40.157 29.5221 40.9998 27.7082 40.9998 25.8167C40.9998 23.9253 40.157 22.1113 38.6567 20.7739C37.1564 19.4364 35.1216 18.685 32.9999 18.685H24.9999V47.2117Z" stroke="black" stroke-width="2" stroke-linecap="round" stroke-linejoin="round"/>
</svg>
