<svg width="42" height="34" viewBox="0 0 42 34" fill="none" xmlns="http://www.w3.org/2000/svg">
<path d="M40.5 0.5H1.5C0.670312 0.5 0 1.17031 0 2V32C0 32.8297 0.670312 33.5 1.5 33.5H40.5C41.3297 33.5 42 32.8297 42 32V2C42 1.17031 41.3297 0.5 40.5 0.5ZM36.7125 5.60469L21.9234 17.1125C21.5578 17.3984 21.0469 17.3984 20.6813 17.1125L5.8875 5.60469C5.83173 5.56165 5.79083 5.50224 5.77052 5.43479C5.75022 5.36734 5.75153 5.29522 5.77427 5.22855C5.79701 5.16188 5.84004 5.10399 5.89733 5.06301C5.95463 5.02202 6.02331 4.99999 6.09375 5H36.5062C36.5767 4.99999 36.6454 5.02202 36.7027 5.06301C36.76 5.10399 36.803 5.16188 36.8257 5.22855C36.8485 5.29522 36.8498 5.36734 36.8295 5.43479C36.8092 5.50224 36.7683 5.56165 36.7125 5.60469V5.60469Z" fill="#699BF7"/>
</svg>
