<svg width="48" height="48" viewBox="0 0 48 48" fill="none" xmlns="http://www.w3.org/2000/svg">
<path d="M7.5 21C7.10218 21 6.72064 20.842 6.43934 20.5607C6.15804 20.2793 6 19.8978 6 19.5V7.50299C6 7.10517 6.15804 6.72364 6.43934 6.44233C6.72064 6.16103 7.10218 6.00299 7.5 6.00299H19.5C19.8978 6.00299 20.2794 6.16103 20.5607 6.44233C20.842 6.72364 21 7.10517 21 7.50299V19.5C21 19.8978 20.842 20.2793 20.5607 20.5607C20.2794 20.842 19.8978 21 19.5 21H7.5ZM28.5 21C28.1022 21 27.7206 20.842 27.4393 20.5607C27.158 20.2793 27 19.8978 27 19.5V7.50299C27 7.10517 27.158 6.72364 27.4393 6.44233C27.7206 6.16103 28.1022 6.00299 28.5 6.00299H40.497C40.8948 6.00299 41.2764 6.16103 41.5577 6.44233C41.839 6.72364 41.997 7.10517 41.997 7.50299V19.5C41.997 19.8978 41.839 20.2793 41.5577 20.5607C41.2764 20.842 40.8948 21 40.497 21H28.5ZM7.5 42C7.10218 42 6.72064 41.842 6.43934 41.5607C6.15804 41.2793 6 40.8978 6 40.5V28.5C6 28.1022 6.15804 27.7206 6.43934 27.4393C6.72064 27.158 7.10218 27 7.5 27H19.5C19.8978 27 20.2794 27.158 20.5607 27.4393C20.842 27.7206 21 28.1022 21 28.5V40.5C21 40.8978 20.842 41.2793 20.5607 41.5607C20.2794 41.842 19.8978 42 19.5 42H7.5ZM28.5 42C28.1022 42 27.7206 41.842 27.4393 41.5607C27.158 41.2793 27 40.8978 27 40.5V28.5C27 28.1022 27.158 27.7206 27.4393 27.4393C27.7206 27.158 28.1022 27 28.5 27H40.497C40.8948 27 41.2764 27.158 41.5577 27.4393C41.839 27.7206 41.997 28.1022 41.997 28.5V40.5C41.997 40.8978 41.839 41.2793 41.5577 41.5607C41.2764 41.842 40.8948 42 40.497 42H28.5Z" fill="#FF4A1C"/>
</svg>
