<svg width="30" height="30" viewBox="0 0 30 30" fill="none" xmlns="http://www.w3.org/2000/svg">
<g clip-path="url(#clip0_43_569)">
<path d="M22.9688 15C22.9688 7.21875 19.4062 0.9375 15 0.9375C7.21875 0.9375 0.9375 7.21875 0.9375 15C0.9375 22.7813 7.21875 29.0625 15 29.0625C19.4062 29.0625 22.9688 22.7813 22.9688 15Z" fill="#FFE8A6"/>
<path d="M15 0.9375C19.4062 0.9375 22.9688 7.21875 22.9688 15C22.9688 22.7813 19.4062 29.0625 15 29.0625C22.7813 29.0625 29.0625 22.7813 29.0625 15C29.0625 7.21875 22.7813 0.9375 15 0.9375Z" fill="#3E4347"/>
<path d="M22.9219 13.2656C21.375 13.5 20.1562 14.8594 20.1562 16.5C20.1562 18 21.1406 19.2656 22.5 19.6406C22.7812 18.1875 22.9687 16.5938 22.9687 14.9531C22.9687 14.4375 22.9688 13.8281 22.9219 13.2656M11.3438 19.2187H11.1562C11.25 18.9375 11.3438 18.6094 11.3438 18.2812C11.3438 16.7344 10.0781 15.4687 8.53125 15.4687C6.98438 15.4687 5.71875 16.7344 5.71875 18.2812C5.71875 19.6406 6.65625 20.7187 7.92187 21C7.45312 21.7031 7.17188 22.5 7.17188 23.4375C7.17188 25.7812 9.04687 27.6562 11.3906 27.6562C13.7344 27.6562 15.6094 25.7812 15.6094 23.4375C15.5625 21.1406 13.6406 19.2187 11.3438 19.2187M11.25 9.9375C12.2813 9.9375 13.125 9.09375 13.125 8.0625C13.125 7.78125 13.0313 7.5 12.9375 7.21875C13.1719 7.3125 13.4062 7.35938 13.6875 7.35938C15 7.35938 16.0312 6.32812 16.0312 5.01562C16.0312 3.70313 15 2.67188 13.6875 2.67188C12.375 2.67188 11.3438 3.70313 11.3438 5.01562C11.3438 5.48438 11.4844 5.90625 11.7188 6.23438C11.5781 6.1875 11.4375 6.1875 11.2969 6.1875C10.2656 6.1875 9.42188 7.03125 9.42188 8.0625C9.375 9.14063 10.2188 9.9375 11.25 9.9375" fill="#F4DC9F"/>
<path d="M17.3438 10.4063C18.3793 10.4063 19.2188 9.56678 19.2188 8.53125C19.2188 7.49572 18.3793 6.65625 17.3438 6.65625C16.3082 6.65625 15.4688 7.49572 15.4688 8.53125C15.4688 9.56678 16.3082 10.4063 17.3438 10.4063Z" fill="#F4DC9F"/>
<path d="M5.67188 14.0156C6.70741 14.0156 7.54688 13.1762 7.54688 12.1406C7.54688 11.1051 6.70741 10.2656 5.67188 10.2656C4.63634 10.2656 3.79688 11.1051 3.79688 12.1406C3.79688 13.1762 4.63634 14.0156 5.67188 14.0156Z" fill="#F4DC9F"/>
<path d="M18.2812 5.25C18.799 5.25 19.2188 4.83027 19.2188 4.3125C19.2188 3.79473 18.799 3.375 18.2812 3.375C17.7635 3.375 17.3438 3.79473 17.3438 4.3125C17.3438 4.83027 17.7635 5.25 18.2812 5.25Z" fill="#F4DC9F"/>
<path d="M3.79688 19.2188C4.31464 19.2188 4.73438 18.799 4.73438 18.2812C4.73438 17.7635 4.31464 17.3438 3.79688 17.3438C3.27911 17.3438 2.85938 17.7635 2.85938 18.2812C2.85938 18.799 3.27911 19.2188 3.79688 19.2188Z" fill="#F4DC9F"/>
<path d="M11.7188 15.4219C12.4954 15.4219 13.125 14.7923 13.125 14.0156C13.125 13.239 12.4954 12.6094 11.7188 12.6094C10.9421 12.6094 10.3125 13.239 10.3125 14.0156C10.3125 14.7923 10.9421 15.4219 11.7188 15.4219Z" fill="#F4DC9F"/>
<path d="M7.03125 8.29688C7.54902 8.29688 7.96875 7.87714 7.96875 7.35938C7.96875 6.84161 7.54902 6.42188 7.03125 6.42188C6.51348 6.42188 6.09375 6.84161 6.09375 7.35938C6.09375 7.87714 6.51348 8.29688 7.03125 8.29688Z" fill="#F4DC9F"/>
<path d="M19.6875 24.6563C19.6875 25.0781 19.8281 25.5 20.1094 25.8281C20.7188 24.9375 21.2344 23.9531 21.6563 22.8281H21.6094C20.5312 22.7813 19.6875 23.625 19.6875 24.6563" fill="#F4DC9F"/>
<path d="M26.7188 16.5C26.7188 14.6719 25.2656 13.2188 23.4375 13.2188C23.25 13.2188 23.0625 13.2187 22.9219 13.2656C22.9688 13.8281 22.9688 14.4375 22.9688 15C22.9688 16.6406 22.8281 18.1875 22.5 19.6875C22.7813 19.7812 23.1094 19.8281 23.4375 19.8281C25.2656 19.7812 26.7188 18.3281 26.7188 16.5Z" fill="#464D51"/>
<path d="M24.375 24.375C24.8928 24.375 25.3125 23.9553 25.3125 23.4375C25.3125 22.9197 24.8928 22.5 24.375 22.5C23.8572 22.5 23.4375 22.9197 23.4375 23.4375C23.4375 23.9553 23.8572 24.375 24.375 24.375Z" fill="#464D51"/>
<path d="M21.5625 26.5312C22.5938 26.5312 23.4375 25.6875 23.4375 24.6562C23.4375 23.625 22.6406 22.8281 21.6094 22.7812C21.1875 23.9063 20.6719 24.9375 20.0625 25.7813C20.4375 26.25 20.9531 26.5312 21.5625 26.5312" fill="#464D51"/>
</g>
<defs>
<clipPath id="clip0_43_569">
<rect width="30" height="30" fill="white"/>
</clipPath>
</defs>
</svg>
