<svg width="31" height="30" viewBox="0 0 31 30" fill="none" xmlns="http://www.w3.org/2000/svg">
<path d="M18.5 0V7.94118C18.5 8.64322 18.8161 9.31651 19.3787 9.81293C19.9413 10.3093 20.7044 10.5882 21.5 10.5882H30.5V25.5882C30.5 26.2903 30.1839 26.9636 29.6213 27.46C29.0587 27.9564 28.2956 28.2353 27.5 28.2353H15.764C16.264 27.4006 16.5 26.4918 16.5 25.5882C16.5002 24.4874 16.0339 23.4263 15.1928 22.6133C14.3517 21.8003 13.1964 21.2941 11.954 21.1941C12.7897 20.3779 13.3165 19.3524 13.4613 18.2599C13.606 17.1674 13.3615 16.0623 12.7618 15.098C12.1621 14.1338 11.2368 13.3583 10.1146 12.8793C8.99247 12.4003 7.72908 12.2416 6.5 12.4253V2.64706C6.5 1.94502 6.81607 1.27173 7.37868 0.775306C7.94129 0.278886 8.70435 0 9.5 0H18.5ZM20.5 0.441176V7.94118C20.5 8.17519 20.6054 8.39962 20.7929 8.56509C20.9804 8.73057 21.2348 8.82353 21.5 8.82353H30L20.5 0.441176ZM11.5 17.6471C11.5 18.5831 11.0786 19.4808 10.3284 20.1427C9.57828 20.8046 8.56087 21.1765 7.5 21.1765C6.43913 21.1765 5.42172 20.8046 4.67157 20.1427C3.92143 19.4808 3.5 18.5831 3.5 17.6471C3.5 16.711 3.92143 15.8133 4.67157 15.1514C5.42172 14.4895 6.43913 14.1176 7.5 14.1176C8.56087 14.1176 9.57828 14.4895 10.3284 15.1514C11.0786 15.8133 11.5 16.711 11.5 17.6471ZM14.5 25.5882C14.5 27.7853 12.5 30 7.5 30C2.5 30 0.5 27.7941 0.5 25.5882C0.5 24.8862 0.816071 24.2129 1.37868 23.7165C1.94129 23.2201 2.70435 22.9412 3.5 22.9412H11.5C12.2956 22.9412 13.0587 23.2201 13.6213 23.7165C14.1839 24.2129 14.5 24.8862 14.5 25.5882Z" fill="#D7CEBB"/>
</svg>
