<svg width="58" height="58" viewBox="0 0 58 58" fill="none" xmlns="http://www.w3.org/2000/svg">
<g clip-path="url(#clip0_38_410)">
<path d="M27.3541 40.1396C27.327 40.194 27.2998 40.2375 27.3541 40.1396V40.1396ZM49.9306 32.2552C48.1073 32.2552 46.3093 32.6721 44.6744 33.4787C44.1397 32.4002 43.5869 31.4577 43.4963 30.7509C43.3875 29.9262 43.2697 29.4368 43.3966 28.458C43.5235 27.4793 44.0944 26.0927 44.0853 25.993C44.0763 25.8934 43.9584 25.3949 42.7894 25.3859C41.6203 25.3768 40.6144 25.6124 40.4966 25.9205C40.2897 26.4835 40.1291 27.0624 40.0163 27.6515C39.8078 28.7118 37.6799 32.4999 36.4746 34.4755C36.0759 33.7052 35.7406 33.0255 35.6681 32.4818C35.5593 31.6571 35.4415 31.1677 35.5684 30.189C35.6953 29.2102 36.2662 27.8237 36.2571 27.724C36.2481 27.6243 36.1303 27.1259 34.963 27.1168C33.7958 27.1077 32.788 27.3434 32.6702 27.6515C32.5524 27.9596 32.4255 28.6846 32.1899 29.3824C31.9543 30.0802 29.1177 36.3877 28.3764 38.028C27.9958 38.8618 27.6695 39.5324 27.4339 39.9855C27.3976 40.058 27.3704 40.1034 27.3523 40.1396C27.3795 40.0943 27.3976 40.049 27.3976 40.0671C27.1983 40.4568 27.0805 40.6743 27.0805 40.6743V40.6834C26.9264 40.9734 26.7542 41.2362 26.6726 41.2362C26.6183 41.2362 26.5005 40.4749 26.6998 39.4327C27.1258 37.2396 28.1317 33.8321 28.1226 33.7143C28.1136 33.6509 28.313 33.0618 27.4611 32.7446C26.6364 32.4455 26.3373 32.944 26.2648 32.944C26.1923 32.944 26.1379 33.1252 26.1379 33.1252C26.1379 33.1252 27.0533 29.2827 24.3798 29.2827C22.7123 29.2827 20.3923 31.1134 19.2523 32.7718C18.5363 33.1615 16.9866 34.0043 15.3554 34.9015L13.4795 35.9346C13.4341 35.8893 13.3979 35.844 13.3526 35.7987C10.1082 32.3368 4.1197 29.8899 4.37345 25.2409C4.46408 23.5462 5.05314 19.0965 15.8901 13.6952C24.7713 9.27273 31.8709 10.4871 33.0943 13.1877C34.8525 17.0393 29.2971 24.2077 20.0751 25.2409C16.5589 25.6305 14.712 24.2712 14.2498 23.7637C13.7695 23.229 13.697 23.2018 13.5157 23.3015C13.2166 23.4646 13.407 23.9359 13.5157 24.2168C13.7876 24.9327 14.9204 26.2015 16.8507 26.8359C18.5454 27.3887 22.667 27.6968 27.6496 25.7665C33.2484 23.6096 37.6074 17.6012 36.3278 12.5715C35.0264 7.46023 26.5512 5.78367 18.5381 8.62929C13.7622 10.324 8.59839 12.9884 4.88458 16.4593C0.471138 20.5918 -0.233925 24.1896 0.0560753 25.694C1.0892 31.0318 8.44614 34.5118 11.3896 37.0855L10.9818 37.3121C9.50464 38.0462 3.89676 40.9824 2.49208 44.0818C0.906138 47.598 2.75489 50.1174 3.96745 50.4618C7.75557 51.513 11.6325 49.619 13.7169 46.5105C15.8013 43.4021 15.5475 39.3421 14.5869 37.4934C14.5778 37.4662 14.5597 37.448 14.5506 37.4209C15.6381 36.7767 16.7348 36.1484 17.8403 35.5359C17.4778 36.5146 17.215 37.6927 17.0791 39.3965C16.916 41.3902 17.7406 43.973 18.81 44.988C19.2813 45.4321 19.8504 45.4412 20.2056 45.4412C21.4563 45.4412 22.0181 44.408 22.6435 43.1755C23.4138 41.6712 24.0935 39.9221 24.0935 39.9221C24.0935 39.9221 23.2416 44.6527 25.5706 44.6527C26.4225 44.6527 27.2744 43.5562 27.655 42.9943V43.0034C27.655 43.0034 27.6731 42.9671 27.7185 42.8946C27.8091 42.7587 27.8544 42.6771 27.8544 42.6771V42.6499C28.1988 42.0609 28.9509 40.7105 30.0838 38.4812C31.5519 35.5993 32.9548 32.0015 32.9548 32.0015C33.0907 32.7917 33.2792 33.5729 33.5166 34.3396C33.7704 35.2005 34.3051 36.143 34.731 37.0584C34.3866 37.5296 34.1782 37.8015 34.1782 37.8015C34.1782 37.8087 34.1818 37.8142 34.1873 37.8196C33.9154 38.1821 33.6073 38.5718 33.2901 38.9524C32.1319 40.3299 30.7526 41.9068 30.5713 42.3599C30.3538 42.8946 30.4082 43.2934 30.8251 43.6015C31.1332 43.8371 31.6769 43.8734 32.2479 43.828C33.2901 43.7555 34.0241 43.5018 34.3776 43.3387C35.0295 43.1051 35.6456 42.7818 36.2082 42.378C37.341 41.5443 38.0298 40.348 37.9663 38.7712C37.9301 37.9012 37.6491 37.0312 37.3048 36.2155C37.4045 36.0705 37.5132 35.9165 37.6129 35.7624C38.7922 34.0027 39.8548 32.1676 40.7938 30.2687C40.9298 31.059 41.1164 31.8402 41.3557 32.6069C41.5732 33.3409 41.9991 34.1475 42.3888 34.9359C40.7032 36.3044 39.661 37.8903 39.3003 38.9325C38.6297 40.8628 39.1553 41.7328 40.1431 41.9322C40.5872 42.0228 41.2216 41.8144 41.6928 41.615C42.3924 41.3812 43.0522 41.0422 43.6485 40.609C44.7813 39.7753 45.8779 38.6062 45.8036 37.0203C45.7764 36.3044 45.577 35.5884 45.3142 34.8997C46.737 34.3015 48.5858 33.9753 50.942 34.2472C55.988 34.8362 56.9758 37.99 56.7855 39.304C56.5952 40.6181 55.5349 41.3522 55.1814 41.5697C54.828 41.7872 54.7193 41.8687 54.7464 42.0319C54.7918 42.2675 54.9549 42.2584 55.2539 42.204C55.6708 42.1315 57.9002 41.1347 57.9999 38.6969C58.1449 35.6156 55.1814 32.2262 49.9343 32.2534L49.9306 32.2552ZM11.0362 45.3687C9.3687 47.1902 7.03239 47.879 6.02645 47.299C4.94801 46.6719 5.37395 43.9912 7.42933 42.05C8.67995 40.8719 10.2931 39.7844 11.3625 39.1137C11.6071 38.9687 11.9606 38.7512 12.3956 38.4884C12.4309 38.4658 12.4672 38.4446 12.5043 38.425C12.5859 38.3706 12.6765 38.3253 12.7671 38.2709C13.5175 41.0259 12.7943 43.4547 11.0362 45.3669V45.3687ZM23.2126 37.0855C22.6326 38.5084 21.411 42.1334 20.666 41.943C20.0316 41.7799 19.642 39.0159 20.5391 36.2971C20.9923 34.9287 21.9529 33.2974 22.5238 32.663C23.4391 31.639 24.4451 31.3127 24.6807 31.7205C24.9979 32.2552 23.5751 36.1974 23.2126 37.0855ZM33.2719 41.8887C33.0273 42.0155 32.8007 42.0971 32.692 42.0337C32.6104 41.9884 32.7916 41.8162 32.7916 41.8162C32.7916 41.8162 34.0513 40.4659 34.5498 39.8496C34.8398 39.4871 35.1751 39.0612 35.5376 38.5899C35.5376 38.6352 35.5466 38.6805 35.5466 38.7349C35.5358 40.3571 33.977 41.4537 33.2701 41.8887H33.2719ZM41.0294 40.1215C40.8482 39.9946 40.8754 39.5687 41.4826 38.2455C41.7182 37.729 42.2619 36.859 43.2044 36.0252C43.3114 36.3406 43.3694 36.6705 43.3766 37.004C43.3676 39.043 41.9085 39.8043 41.0294 40.1215V40.1215Z" fill="#003049"/>
</g>
<defs>
<clipPath id="clip0_38_410">
<rect width="58" height="58" fill="white"/>
</clipPath>
</defs>
</svg>
