<svg width="30" height="30" viewBox="0 0 30 30" fill="none" xmlns="http://www.w3.org/2000/svg">
<path d="M15 22.5C13.0109 22.5 11.1032 21.7098 9.6967 20.3033C8.29018 18.8968 7.5 16.9891 7.5 15C7.5 13.0109 8.29018 11.1032 9.6967 9.6967C11.1032 8.29018 13.0109 7.5 15 7.5C16.9891 7.5 18.8968 8.29018 20.3033 9.6967C21.7098 11.1032 22.5 13.0109 22.5 15C22.5 16.9891 21.7098 18.8968 20.3033 20.3033C18.8968 21.7098 16.9891 22.5 15 22.5ZM13.75 1.25H16.25V5H13.75V1.25ZM13.75 25H16.25V28.75H13.75V25ZM4.39375 6.16125L6.16125 4.39375L8.8125 7.045L7.045 8.8125L4.39375 6.1625V6.16125ZM21.1875 22.955L22.955 21.1875L25.6063 23.8387L23.8387 25.6063L21.1875 22.955ZM23.8387 4.3925L25.6063 6.16125L22.955 8.8125L21.1875 7.045L23.8387 4.39375V4.3925ZM7.045 21.1875L8.8125 22.955L6.16125 25.6063L4.39375 23.8387L7.045 21.1875V21.1875ZM28.75 13.75V16.25H25V13.75H28.75ZM5 13.75V16.25H1.25V13.75H5Z" fill="#E6B904"/>
</svg>
